<svg width="800" height="710" viewBox="0 0 800 710" fill="none" xmlns="http://www.w3.org/2000/svg">
<path d="M26.5451 9.99318V529.43C26.5451 534.947 31.0226 539.425 36.5395 539.425H746.846C752.363 539.425 756.84 534.947 756.84 529.43V9.99318C756.84 4.47627 752.363 -0.0012207 746.846 -0.0012207H36.5395C31.0226 -0.0012207 26.5451 4.47627 26.5451 9.99318ZM46.5339 19.9876H736.851V519.436H46.5339V19.9876Z" fill="#1B2741"/>
<path d="M647.27 124.089H136.1C130.583 124.089 126.105 128.567 126.105 134.084V405.356C126.105 410.873 130.583 415.35 136.1 415.35H647.27C652.786 415.35 657.264 410.873 657.264 405.356V134.084C657.264 128.567 652.786 124.089 647.27 124.089ZM637.275 395.361H146.094V144.078H637.275V395.361Z" fill="#1B2741"/>
<path d="M790.006 567.169H475.174C470.728 567.169 466.875 570.032 465.595 574.285L453.154 615.702H342.48L328.584 574.013C327.225 569.936 323.419 567.185 319.101 567.185H9.9944C4.47749 567.201 0 571.663 0 577.196V700.007C0 705.524 4.47749 710.001 9.9944 710.001H790.006C795.523 710.001 800 705.524 800 700.007V577.196C800 571.647 795.523 567.169 790.006 567.169ZM780.011 689.98H19.9888V587.158H311.905L325.802 628.863C327.161 632.94 330.967 635.691 335.284 635.691H460.59C465.036 635.691 468.889 632.828 470.169 628.575L482.61 587.158H780.027L780.011 689.98Z" fill="#1B2741"/>
</svg>
