<svg width="800" height="698" viewBox="0 0 800 698" fill="none" xmlns="http://www.w3.org/2000/svg">
<path d="M795.125 336.615L461.643 5.29849C455.143 -1.03399 444.477 -1.03399 438.144 5.46567C435.144 8.46551 433.477 12.6325 433.312 16.9651V214.955H16.6663C7.4996 214.955 0 222.454 0 231.621V464.941C0 474.108 7.4996 481.608 16.6663 481.608H433.312V680.764C433.312 687.431 437.311 693.597 443.644 696.096C445.644 696.929 447.811 697.429 449.976 697.429C454.476 697.429 458.643 695.762 461.808 692.597L795.124 360.281C801.625 353.615 801.625 343.115 795.125 336.615ZM466.643 641.265V464.941C466.643 455.775 459.143 448.275 449.976 448.275H33.3311V248.286H449.976C459.143 248.286 466.643 240.786 466.643 231.619V55.1302L759.794 347.782L466.643 641.265Z" fill="#1B2741"/>
</svg>
