<svg width="676" height="742" viewBox="0 0 676 742" fill="none" xmlns="http://www.w3.org/2000/svg">
<g filter="url(#filter0_d_49650_2139)">
<path fill-rule="evenodd" clip-rule="evenodd" d="M471.333 33.6666C471.333 15.2573 486.257 0.333252 504.667 0.333252H538H571.333C589.743 0.333252 604.667 15.2573 604.667 33.6666C604.667 52.0759 589.743 66.9999 571.333 66.9999V133.667C626.563 133.667 671.333 178.438 671.333 233.667V633.667C671.333 688.897 626.563 733.667 571.333 733.667H104.667C49.4384 733.667 4.66669 688.897 4.66669 633.667V233.667C4.66669 178.438 49.4384 133.667 104.667 133.667V100.333C86.2574 100.333 71.3334 85.4092 71.3334 66.9999C71.3334 48.5906 86.2574 33.6666 104.667 33.6666H138H171.333C189.743 33.6666 204.667 48.5906 204.667 66.9999C204.667 85.4092 189.743 100.333 171.333 100.333V133.667H504.667V66.9999C486.257 66.9999 471.333 52.0759 471.333 33.6666ZM138 200.333H538H571.333C589.743 200.333 604.667 215.257 604.667 233.667V633.667C604.667 652.077 589.743 667 571.333 667H104.667C86.2574 667 71.3334 652.077 71.3334 633.667V233.667C71.3334 215.257 86.2574 200.333 104.667 200.333H138ZM338 233.667C356.41 233.667 371.333 248.59 371.333 267V415.827L456.49 472.597C471.807 482.81 475.947 503.507 465.737 518.823C455.523 534.14 434.827 538.28 419.51 528.07L319.51 461.403C310.237 455.22 304.667 444.813 304.667 433.667V267C304.667 248.59 319.59 233.667 338 233.667ZM171.333 467C189.743 467 204.667 452.077 204.667 433.667C204.667 415.257 189.743 400.333 171.333 400.333C152.924 400.333 138 415.257 138 433.667C138 452.077 152.924 467 171.333 467ZM538 433.667C538 452.077 523.077 467 504.667 467C486.257 467 471.333 452.077 471.333 433.667C471.333 415.257 486.257 400.333 504.667 400.333C523.077 400.333 538 415.257 538 433.667ZM338 633.667C356.41 633.667 371.333 618.743 371.333 600.333C371.333 581.923 356.41 567 338 567C319.59 567 304.667 581.923 304.667 600.333C304.667 618.743 319.59 633.667 338 633.667Z" fill="#1B2741"/>
</g>
<defs>
<filter id="filter0_d_49650_2139" x="0.666687" y="0.333252" width="674.667" height="741.333" filterUnits="userSpaceOnUse" color-interpolation-filters="sRGB">
<feFlood flood-opacity="0" result="BackgroundImageFix"/>
<feColorMatrix in="SourceAlpha" type="matrix" values="0 0 0 0 0 0 0 0 0 0 0 0 0 0 0 0 0 0 127 0" result="hardAlpha"/>
<feOffset dy="4"/>
<feGaussianBlur stdDeviation="2"/>
<feComposite in2="hardAlpha" operator="out"/>
<feColorMatrix type="matrix" values="0 0 0 0 0 0 0 0 0 0 0 0 0 0 0 0 0 0 0.25 0"/>
<feBlend mode="normal" in2="BackgroundImageFix" result="effect1_dropShadow_49650_2139"/>
<feBlend mode="normal" in="SourceGraphic" in2="effect1_dropShadow_49650_2139" result="shape"/>
</filter>
</defs>
</svg>
