<svg width="147" height="161" viewBox="0 0 147 161" fill="none" xmlns="http://www.w3.org/2000/svg">
<path d="M68 5.20017C66.6666 9.46684 66 10.0002 61.8666 10.0002C57.6 10.0002 57.3333 10.2668 57.3333 14.5335C57.3333 18.5335 58 19.6002 62.6666 22.1335C65.6 23.8668 68 26.1335 68 27.2002C68 28.2668 65.2 32.1335 61.7333 35.6002C56.1333 41.2002 55.4666 42.6668 54.9333 49.3335C54.6666 53.3335 54.1333 56.6668 53.7333 56.6668C53.4666 56.6668 51.4666 55.4668 49.4666 53.8668C40.8 47.4668 25.0666 46.5335 14.6666 52.0002C9.3333 54.8002 3.06663 62.5335 1.46663 68.2668C-1.60004 79.2002 0.266631 85.6002 11.6 102.934C20 115.6 22.2666 121.734 23.4666 135.734C24.8 150.4 27.6 153.734 41.8666 157.467C58.2666 161.867 96.5333 160.934 110.8 156C120.4 152.534 122.267 149.867 123.333 138.134C124.8 123.2 127.867 114.667 137.067 100.8C145.867 87.6002 147.333 82.9335 146.4 72.5335C144.4 52.4002 121.2 42.1335 101.333 52.4002L93.6 56.4002L92.6666 49.0668C91.8666 42.6668 91.0666 41.0668 85.8666 36.1335C78.6666 29.2002 78.4 25.8668 84.6666 22.0002C88.5333 19.6002 89.3333 18.2668 89.3333 14.5335C89.3333 10.2668 89.0666 10.0002 84.8 10.0002C80.9333 10.0002 80.2666 9.46684 79.2 5.60017C78.1333 2.1335 77.2 1.20017 73.7333 0.933504C70 0.533504 69.4666 1.06684 68 5.20017ZM42 59.3335C55.0666 65.6002 64.2666 78.0002 66 91.3335C67.4666 102 67.8666 103.067 71.3333 103.867C76.8 105.2 80 102.667 80 96.8002C80 77.7335 99.3333 56.6668 116.667 56.6668C129.467 56.6668 137.333 63.7335 137.333 75.2002C137.333 84.9335 126.533 103.067 116.667 109.867C112.8 112.4 110.4 112.934 102.533 112.934C97.3333 112.8 88.6666 112.134 83.2 111.334C76.2666 110.267 70.5333 110.267 63.6 111.2C53.6 112.667 45.2 113.2 37.3333 112.8C33.4666 112.667 31.3333 111.2 24.6666 104.267C10.8 89.7335 5.99996 74.9335 11.8666 65.2002C16.9333 56.9335 31.2 54.1335 42 59.3335ZM103.867 134.534C106.4 135.334 108.667 136.667 108.933 137.6C110.133 141.067 104.667 141.734 88.9333 140.4C78.2666 139.467 68.4 139.467 57.7333 140.4C42.5333 141.734 37.3333 141.067 37.3333 137.867C37.3333 135.467 44.5333 133.734 58 132.8C74 131.6 97.6 132.534 103.867 134.534Z" fill="black"/>
<path d="M24.4001 63.4667C19.0667 65.0667 14.6667 70.5334 14.6667 75.7334C14.6667 81.8667 19.7334 91.2001 27.3334 98.8001C33.3334 104.8 34.8001 105.6 41.3334 106.4C49.4667 107.333 58.4001 105.733 60.2668 103.067C63.0668 98.9334 58.6668 82.8001 52.6668 74.8001C45.3334 65.4667 33.8667 60.8001 24.4001 63.4667Z" fill="black"/>
<path d="M111.067 63.3333C98.9333 66.1333 89.0667 78.3999 86.5333 93.7333C84.8 104.533 86.9333 106.267 100.667 106.267C110.533 106.267 110.933 106.133 117.067 101.067C125.333 94.1333 132 83.0666 132 76.2666C132 72.3999 131.067 70.1333 128.133 67.1999C126 65.0666 123.067 63.3333 121.6 63.3333C120.133 63.3333 118.133 63.0666 117.067 62.7999C116.133 62.5333 113.333 62.7999 111.067 63.3333Z" fill="black"/>
</svg>
