<svg width="122" height="142" viewBox="0 0 122 142" fill="none" xmlns="http://www.w3.org/2000/svg">
<path d="M9.26657 4.06659C6.06657 7.39993 5.66657 8.73327 5.66657 17.7999V27.7999L15.6666 37.6666L25.6666 47.5333V70.9999V94.3333L12.9999 107L0.33324 119.667V128.467C0.33324 142.6 -4.06676 141.667 61.2666 141.667C126.2 141.667 121.667 142.733 121.667 128.2V119.667L109.667 107.667L97.6666 95.6666V71.6666V47.5333L107 38.3333L116.333 29.1333V17.6666C116.333 7.39994 116.067 5.79993 113.267 3.26659C110.733 0.866594 108.6 0.333261 100.867 0.333261C90.8666 0.333261 88.3332 1.53327 88.3332 6.59994C88.3332 9.2666 87.6666 9.6666 83.6666 9.6666C79.6666 9.6666 78.9999 9.2666 78.9999 6.59994C78.9999 1.13327 76.7332 0.333261 61.6666 0.333261C46.5999 0.333261 44.3332 1.13327 44.3332 6.59994C44.3332 9.2666 43.6666 9.6666 39.6666 9.6666C36.0666 9.6666 34.9999 9.13327 34.9999 7.2666C34.9999 2.4666 30.7332 0.333261 21.5332 0.333261C13.7999 0.333261 12.4666 0.733261 9.26657 4.06659ZM88.3332 50.3333V54.9999L61.3999 54.7333L34.3332 54.3333L33.9332 49.9333L33.5332 45.6666H60.8666H88.3332V50.3333ZM88.3332 93.6666V97.6666H60.9999H33.6666V93.6666V89.6666H60.9999H88.3332V93.6666Z" fill="black"/>
</svg>
