<svg width="106" height="143" viewBox="0 0 106 143" fill="none" xmlns="http://www.w3.org/2000/svg">
<path d="M42.0666 2.79984C33 7.4665 29.9333 16.2665 33.5333 26.5332C34.7333 29.7332 35.5333 32.5332 35.4 32.6665C35.1333 32.7998 32.7333 34.1332 30.0666 35.8665C21.1333 41.1998 17.1333 55.3332 21.5333 65.7332C22.4666 68.1332 25.2666 71.7332 27.6666 73.8665C31.1333 76.7998 31.6666 77.7332 30.2 78.6665C23.5333 82.3998 13.9333 90.9332 10.4666 95.9998C4.19998 105.333 2.06664 112.667 1.39998 128.267L0.599976 142.667H53H105.4L104.6 128.267C104.067 118.533 103 111.6 101 106.4C97.6666 97.4665 88.6 86.7998 80.2 81.8665C77 79.9998 74.3333 78.1332 74.3333 77.7332C74.3333 77.3332 75.9333 75.8665 77.8 74.2665C81.9333 71.0665 86.2 62.2665 86.3333 56.7998C86.3333 49.7332 83.2666 42.6665 78.3333 38.1332C75.5333 35.7332 72.6 33.4665 71.6666 33.0665C70.2 32.6665 70.2 31.5998 71.4 27.9998C72.3333 25.5998 73 21.0665 73 17.8665C73 3.99983 55.8 -4.5335 42.0666 2.79984Z" fill="black"/>
</svg>
