<svg width="169" height="156" viewBox="0 0 169 156" fill="none" xmlns="http://www.w3.org/2000/svg">
<path d="M76.2666 3.06666C71.6 6.66666 70.8 12.1333 73.6 21.0667C76.6666 30.8 76.5333 44.1333 73.4666 60L71.2 72L68.1333 65.3333C61.7333 51.2 58.4 38.9333 58.6666 30.6667C58.8 26.2667 58.9333 21.0667 58.9333 19.0667C59.2 10.4 49.3333 4.26666 40.8 7.86666C35.2 10.1333 33.2 12.9333 32.4 19.0667C31.8666 23.4667 32.2666 24.9333 35.8666 28.9333C41.8666 35.7333 42.6666 39.2 42.6666 56.4L42.5333 72L37.3333 66.2667C29.0666 57.0667 26.1333 49.8667 27.2 40.9333C27.8666 34.6667 27.6 32.5333 25.3333 28.9333C20.8 21.6 13.7333 20.1333 6.66662 24.9333C-1.60005 30.5333 -1.20005 41.6 7.33328 48C11.0666 50.9333 11.7333 52.4 12.5333 59.3333C13.0666 63.6 15.2 73.8667 17.2 81.8667C20.5333 94.8 21.8666 97.6 27.7333 104.933C31.3333 109.6 35.3333 115.333 36.5333 117.733C38.6666 121.867 38.6666 122.4 35.3333 131.467C29.6 147.467 30.6666 149.333 47.3333 153.6C60.1333 156.8 107.867 156.8 122.533 153.6C138.267 150.133 140.267 146.267 133.867 131.067C131.867 126.267 130.8 121.733 131.2 119.867C131.6 118.267 135.733 112.267 140.133 106.533C148 96.6667 148.4 95.7333 152.133 80.4C154.133 71.6 156.267 61.3333 156.667 57.4667C157.467 51.7333 158.267 50.2667 161.867 48C171.067 42 170.533 28.4 160.933 23.8667C155.067 21.0667 150.267 22.1333 145.067 27.4667C141.2 31.3333 141.067 31.7333 142 39.8667C142.8 47.3333 142.4 49.2 139.6 54.8C137.733 58.4 134.133 63.7333 131.467 66.6667L126.8 72L126.4 64C125.467 43.3333 127.2 34.9333 133.067 29.4667C143.067 20.5333 132.133 3.06666 119.333 7.33333C111.333 9.99999 110 12.8 110.4 26.1333C110.667 36.4 110.267 39.6 106.8 50C104.533 56.6667 101.6 64.2667 100.267 66.9333L97.7333 71.7333L95.6 59.7333C92.8 44.6667 92.6666 29.4667 95.3333 22C98.2666 13.7333 97.8666 8.26666 94 4.13333C90.1333 -0.133341 81.2 -0.666675 76.2666 3.06666ZM89.0666 8.93333C91.3333 11.2 91.0666 16 88.6666 18C83.6 22.1333 75.8666 14.4 80 9.33333C82 6.93333 86.8 6.66666 89.0666 8.93333ZM50.9333 17.2C54 21.8667 50.9333 26.2667 45.2 25.7333C41.3333 25.3333 40.6666 24.8 40.2666 21.3333C39.8666 18.8 40.5333 16.9333 42.1333 15.7333C44.6666 13.8667 49.3333 14.6667 50.9333 17.2ZM127.2 15.7333C128.8 16.9333 129.467 18.8 129.067 21.3333C128.8 24.5333 128 25.4667 124.933 25.7333C117.733 26.5333 114.667 20 120.267 16.1333C123.867 13.6 124.267 13.6 127.2 15.7333ZM18.4 31.6C20.6666 33.8667 20.4 38.6667 18 40.6667C15.3333 42.9333 9.73328 41.3333 8.66662 38C6.79995 32.1333 14.1333 27.3333 18.4 31.6ZM159.2 32.1333C161.733 34.5333 161.867 35.8667 160 39.4667C157.333 44.4 149.333 41.8667 149.333 36C149.333 30.4 155.2 28.1333 159.2 32.1333ZM122 96.8C125.733 98.1333 127.467 99.6 127.733 101.467L128.133 104.4L84.8 104.267C43.4666 104.133 41.3333 104 41.3333 101.733C41.3333 96.1333 55.8666 94 90 94.5333C108 94.9333 118.4 95.6 122 96.8ZM116.533 125.867C119.333 126.533 122.667 128.133 123.867 129.2C125.6 131.067 125.6 131.6 124 133.2C122.267 134.8 118.667 134.933 102.667 134.133C92 133.467 75.3333 133.467 65.4666 134.133C48 135.333 44 134.667 44 131.2C44 129.067 51.6 126.133 60.1333 124.8C70.2666 123.2 109.067 124 116.533 125.867Z" fill="black"/>
</svg>
