<svg width="147" height="143" viewBox="0 0 147 143" fill="none" xmlns="http://www.w3.org/2000/svg">
<path d="M61 5.19983L56.7333 10.3998L49.5333 7.0665C45.5333 5.19983 39.4 3.59983 36.0667 3.59983L29.9333 3.33316L30.2 12.6665C30.4667 23.8665 28.8667 29.0665 15.6667 57.1998C10.3333 68.5332 4.59999 81.7332 2.99999 86.7998C0.0666595 95.4665 -0.0666737 95.8665 2.33333 99.5998C5.66666 105.2 10.6 108.667 17.8 110.667C22.0667 111.867 24.6 112 26.2 111.067C27.8 110 28.6 110.4 29.6667 112.533C30.4667 114.133 32.3333 115.467 33.9333 115.733C36.2 116.133 38.2 114.133 43.5333 106.267C47.1333 100.8 52.0667 94.7998 54.4667 92.7998C59.2667 88.6665 69 83.4665 69.9333 84.3998C71.2667 85.7332 64.8667 97.7332 57.2667 108.4C52.8667 114.4 48.4667 121.067 47.2667 123.333C45.6667 126.533 42.3333 139.333 42.3333 142C42.3333 142.4 65.4 142.667 93.5333 142.667H144.6L145.533 136.533C148.467 114.267 142.867 78.3998 133.4 59.3332C121.667 35.9998 104.6 20.9332 87.1333 18.7998C80.8667 17.9998 80.4667 17.7332 78.7333 12.3998C76.8667 6.79983 70.4667 -0.000170201 67 -0.000170201C65.9333 -0.000170201 63.2667 2.39983 61 5.19983ZM88.7333 31.3332C102.6 35.4665 121.267 57.5998 127.933 77.9998C131.933 90.1332 134.333 105.333 134.333 118.533C134.333 128.133 132.333 132.667 128.733 131.333C125.933 130.267 125 126.533 125 115.2C125 102.667 121.8 84.3998 117.8 74.6665C110.6 57.0665 95.9333 41.1998 82.3333 36.3998C75.9333 34.1332 73.9333 31.5998 77.4 30.2665C80.0667 29.0665 81.5333 29.1998 88.7333 31.3332ZM49.9333 42.2665C50.3333 43.1998 48.2 46.3998 45.4 49.3332C41.5333 53.5998 39.2667 54.9332 35.6667 55.0665C28.8667 55.4665 28.6 50.7998 34.8667 44.5332C38.8667 40.5332 40.3333 39.8665 44.4667 40.2665C47.2667 40.5332 49.6667 41.3332 49.9333 42.2665ZM15.6667 90.3998C15.6667 93.7332 12.8667 97.0665 9.66666 97.5998C7.53333 97.8665 7.13333 97.3332 7.39999 94.6665C7.93333 89.1998 15.6667 85.1998 15.6667 90.3998Z" fill="black"/>
</svg>
