<svg width="158" height="168" viewBox="0 0 158 168" fill="none" xmlns="http://www.w3.org/2000/svg">
<path d="M68.7332 2.86643C62.3332 6.86643 60.7332 16.0664 64.9999 24.1998L66.9999 28.0664L60.8666 30.9998C57.5332 32.5998 50.4666 38.1998 44.9999 43.5331C36.7332 51.6664 34.9999 54.0664 32.9999 60.7331C29.6666 72.1998 32.1999 82.1998 42.0666 96.0664C46.0666 101.666 46.1999 101.933 44.4666 108.066C40.3332 122.6 41.5332 126.333 51.2666 127.8C54.0666 128.333 56.3332 129.133 56.3332 129.533C56.3332 131.666 43.2666 133.666 30.1999 133.666C13.9332 133.666 10.5999 134.866 4.59989 143.133L0.466553 148.733L5.66655 156.466C8.59989 160.733 12.3332 165.133 13.7999 166.2C16.3332 167.933 16.9999 167.933 19.7999 166.066C21.6666 164.866 30.7332 163 40.7332 161.666C62.1999 158.733 67.7999 157.266 74.1999 153L79.2666 149.533L83.5332 152.333C91.1332 157 99.1332 159.133 118.067 161.666C130.733 163.266 137.267 164.733 139 166.333C140.867 168.066 142.067 168.2 144.2 167.133C146.733 165.666 157.667 151 157.667 148.866C157.667 146.866 150.467 138.6 146.467 136.2C143.133 134.2 139.8 133.666 128.733 133.666C115.267 133.666 101.667 131.533 101.667 129.4C101.667 128.866 103.133 128.333 105 128.333C109.667 128.333 115.933 124.866 116.867 121.933C117.267 120.733 116.467 115.533 115 110.466L112.467 101.4L117.667 93.7998C130.6 74.7331 129.8 59.5331 114.867 44.4664C109.267 38.8664 98.1999 30.9998 93.3999 29.2664C91.3999 28.5998 91.5332 28.0664 93.9332 23.1331C97.3999 16.1998 96.3332 9.39976 90.9999 4.06643C87.7999 0.86643 86.1999 0.333097 80.0666 0.333097C75.3999 0.333097 71.5332 1.26643 68.7332 2.86643ZM83.5332 11.7998C86.0666 14.1998 86.1999 15.5331 84.3332 19.1331C81.6666 24.0664 73.6666 21.5331 73.6666 15.6664C73.6666 10.0664 79.5332 7.79976 83.5332 11.7998ZM83.2666 52.5998C82.8666 57.5331 82.8666 57.6664 87.5332 57.6664C92.0666 57.6664 92.3332 57.9331 92.3332 62.1998C92.3332 66.4664 91.9332 66.8664 88.0666 67.2664C83.9332 67.6664 83.6666 68.0664 83.6666 72.7331C83.6666 77.3998 83.3999 77.6664 79.3999 77.6664C75.1332 77.6664 74.9999 77.3998 74.9999 72.3331C74.9999 67.3998 74.7332 66.9998 71.1332 66.9998C67.9332 66.9998 67.2666 66.3331 66.7332 62.9998C66.0666 58.1998 66.3332 57.6664 71.2666 57.6664C74.7332 57.6664 74.9999 57.2664 74.9999 52.1998C74.9999 46.9998 75.1332 46.8664 79.3999 47.2664C83.5332 47.6664 83.6666 47.9331 83.2666 52.5998ZM102.6 93.1331C103 94.3331 102.6 95.7998 101.533 96.4664C99.3999 97.9331 56.9999 97.5331 55.6666 96.0664C55.1332 95.5331 54.9999 94.1998 55.3999 92.9998C56.7332 89.9331 101.4 89.9331 102.6 93.1331ZM100.867 106.466C103.667 107.533 103.533 110.466 100.733 111.666C99.3999 112.2 90.7332 112.866 81.5332 113.266C60.5999 114.2 49.7999 111.4 57.3999 107.133C59.7999 105.666 97.3999 105.133 100.867 106.466Z" fill="black"/>
</svg>
