<svg width="105" height="143" viewBox="0 0 105 143" fill="none" xmlns="http://www.w3.org/2000/svg">
<path d="M45.4668 1.33316C35.2001 4.39983 30.0001 15.0665 33.3334 26.1332C35.0667 31.8665 35.0667 32.6665 33.2001 33.7332C28.0001 36.6665 22.0001 43.1998 20.5334 47.5998C17.3334 57.1998 21.4667 70.9332 28.9334 75.1998L33.0667 77.7332L28.5334 79.9998C21.7334 83.5998 11.7334 92.9332 8.00008 99.1998C3.60008 106.667 0.666748 119.867 0.666748 132.267V142.667H52.8001H105.067L104.267 128.933C103.867 121.467 102.533 112.267 101.333 108.533C98.1334 99.0665 90.8001 89.8665 81.3334 83.4665L73.2001 77.9998L78.8001 72.6665C85.0668 66.6665 86.8001 61.0665 85.3334 51.3332C84.5334 45.3332 78.5334 37.4665 72.2668 33.9998C70.0001 32.7998 70.0001 32.2665 72.0001 26.3998C77.6001 10.2665 62.8001 -3.7335 45.4668 1.33316ZM56.8001 9.33316C59.2001 9.33316 63.3334 14.6665 63.3334 17.8665C63.3334 19.5998 62.1334 23.5998 60.8001 26.6665C59.3334 29.8665 58.5334 33.1998 58.9334 34.1332C59.2001 35.0665 61.8668 37.3332 64.8001 39.3332C71.7334 43.8665 75.3334 49.8665 75.3334 57.0665C75.3334 63.0665 73.0668 66.1332 63.6001 73.7332C59.7334 76.7998 61.3334 79.9998 69.7334 85.7332C86.9334 97.5998 93.8668 108.133 95.0668 124L95.7334 133.333H52.6668H9.60008L10.2667 124C11.4667 107.867 17.4667 99.0665 36.6667 84.9332C44.4001 79.1998 44.9334 75.9998 38.6668 71.0665C26.4001 61.5998 27.2001 48.6665 40.5334 39.1998C46.4001 34.9332 47.3334 31.3332 44.0001 25.3332C39.0668 16.6665 45.0668 6.53316 53.7334 8.79983C54.8001 9.0665 56.1334 9.33316 56.8001 9.33316Z" fill="black"/>
</svg>
