<svg width="123" height="143" viewBox="0 0 123 143" fill="none" xmlns="http://www.w3.org/2000/svg">
<path d="M6.93317 3.73298C3.59984 7.19965 3.33317 8.39965 3.33317 18.2663V29.0663L13.8665 38.2663L24.5332 47.333V71.9997L24.6665 96.6663L12.6665 108.666L0.666504 120.666V130C0.666504 135.6 1.33317 140.133 2.2665 141.066C3.4665 142.266 18.2665 142.666 60.6665 142.666C126.4 142.666 122 143.6 122 129.866V122L109.333 109.066L96.6665 96.133V72.2663V48.2663L107.333 39.1997L118 29.9997V18.533C118 7.86632 117.733 6.93298 114.267 3.59965C110.933 0.399651 109.6 -0.000349238 100.533 -0.000349238C89.3332 -0.000349238 84.2665 2.66632 85.5998 7.99965C86.2665 10.2663 85.7332 10.6663 82.1332 10.6663C78.6665 10.6663 77.9998 10.133 77.9998 7.59965C77.9998 1.59965 74.2665 -0.000349238 60.3998 -0.000349238C46.6665 -0.000349238 43.3332 1.59965 43.3332 7.73298C43.3332 9.99965 42.5332 10.6663 39.9998 10.6663C37.3332 10.6663 36.6665 9.99965 36.6665 7.59965C36.6665 1.86632 32.7998 -0.000349238 21.1998 -0.000349238C11.1998 -0.000349238 10.2665 0.266317 6.93317 3.73298ZM28.6665 13.733C28.6665 18.533 31.1998 19.9997 39.4665 19.9997C49.5998 19.9997 51.3332 19.1997 51.3332 14.533V10.6663H60.6665C69.4665 10.6663 69.9998 10.7997 69.9998 13.733C69.9998 18.6663 72.5332 19.9997 82.2665 19.9997C89.9998 19.9997 91.4665 19.5997 92.6665 17.1997C93.5998 15.733 93.8665 13.5997 93.4665 12.533C92.9332 11.0663 94.3998 10.6663 100.533 10.6663C109.467 10.6663 110 11.333 110 21.0663C110 27.0663 109.733 27.5997 102 33.5997L94.1332 39.9997H61.0665H27.9998L19.9998 33.5997C12.1332 27.1997 11.9998 26.933 11.9998 20.533C12.1332 16.933 12.5332 13.1997 13.1998 12.2663C13.7332 11.333 17.0665 10.6663 21.4665 10.6663C28.1332 10.6663 28.6665 10.933 28.6665 13.733ZM88.6665 70.6663V91.9997L61.1998 91.733L33.8665 91.333L33.5998 70.2663L33.3332 49.333H61.0665H88.6665V70.6663ZM97.5998 106.933C101.467 110.8 104.667 114.266 104.667 114.666C104.667 115.066 85.0665 115.2 61.0665 114.933L17.4665 114.533L24.6665 107.333L31.8665 99.9997H61.1998H90.5332L97.5998 106.933ZM114 128.666V133.333H61.3332H8.6665V128.666V124H61.3332H114V128.666Z" fill="black"/>
</svg>
