<svg width="146" height="143" viewBox="0 0 146 143" fill="none" xmlns="http://www.w3.org/2000/svg">
<path d="M61.9334 3.99983C60.0667 6.13316 58.3334 8.53316 58.0667 9.33316C57.8001 10.2665 55.0001 9.59983 50.6001 7.33316C46.8667 5.4665 40.6001 3.4665 36.8667 3.0665L30.0667 2.2665L31.0001 10.3998C32.0667 19.7332 30.2001 27.7332 23.1334 42.9332C10.6001 70.2665 5.1334 82.6665 3.1334 88.9332L0.733398 95.9998L4.60007 101.333C8.86673 107.333 15.8001 111.2 20.6001 110.267C22.8667 109.867 24.8667 110.667 27.1334 112.933C32.3334 118.133 36.6001 116.667 42.6001 108C45.4001 104 49.9334 98.3998 52.7334 95.5998C57.8001 90.2665 68.6001 83.1998 69.8001 84.3998C71.4001 85.9998 67.9334 93.1998 59.0001 106.667C49.2667 121.067 43.6667 133.2 43.6667 139.333V142.667H94.2001H144.733L145.667 132.933C146.867 120.4 144.467 94.3998 141 80.6665C135.933 61.0665 125 42.1332 112.067 30.6665C103.533 23.1998 96.8667 19.8665 88.2001 19.0665C81.5334 18.3998 81.0001 17.9998 79.5334 13.7332C77.6667 7.8665 70.7334 -0.000170201 67.6667 -0.000170201C66.3334 -0.000170201 63.8001 1.73316 61.9334 3.99983ZM43.9334 12.7998L48.2001 14.9332L44.8667 16.7998C39.9334 19.5998 38.3334 19.0665 38.3334 14.6665C38.3334 9.99983 38.4667 9.99983 43.9334 12.7998ZM70.3334 17.0665C74.3334 29.8665 73.6667 29.3332 84.0667 29.3332C91.1334 29.3332 94.4667 29.9998 97.8001 32.1332C105.133 36.6665 117.267 51.0665 123.267 62.1332C131.933 78.3998 134.467 89.1998 135.267 112.933L136.067 133.2L95.8001 133.6C63.8001 133.867 55.6667 133.6 55.6667 132.267C55.6667 129.733 60.6001 120.533 67.5334 110C76.8667 95.9998 79.6667 88.7998 79.6667 78.6665C79.6667 75.3332 81.1334 67.7332 82.8667 61.8665C86.3334 50.2665 86.2001 47.3332 82.2001 49.3332C78.8667 51.1998 73.5334 60.6665 71.6667 67.9998C70.3334 73.3332 69.4001 74.5332 64.0667 77.3332C55.9334 81.5998 45.6667 91.1998 39.0001 100.533C33.2667 108.4 30.7334 109.333 31.4001 103.333C31.8001 99.8665 31.5334 99.7332 28.0667 100.533C17.9334 103.067 16.3334 102.933 12.6001 99.1998C9.66673 96.3998 9.00007 94.6665 9.66673 92.1332C10.0667 90.1332 16.0667 76.9332 22.8667 62.6665C29.6667 48.3998 36.0667 34.7998 37.0001 32.3998C38.3334 28.9332 40.0667 27.5998 45.9334 25.3332C57.6667 20.9332 63.6667 17.4665 65.2667 13.9998C67.1334 9.8665 68.3334 10.6665 70.3334 17.0665Z" fill="black"/>
<path d="M38.7335 42.6667C34.3335 45.3333 32.0668 50.2667 33.5335 54C34.6002 56.9333 37.9335 56.5333 44.6002 52.6667C50.0668 49.3333 53.0002 44.5333 51.0002 41.4667C49.6668 39.2 43.4002 39.7333 38.7335 42.6667Z" fill="black"/>
</svg>
