<svg width="157" height="169" viewBox="0 0 157 169" fill="none" xmlns="http://www.w3.org/2000/svg">
<path d="M72.5333 1.33325C66 3.33325 62.2666 8.39991 62.2666 15.1999C62.2666 18.5332 63.2 22.6666 64.5333 24.6666C65.8666 26.6666 66.6666 28.2666 66.4 28.3999C42 40.5332 28.6666 57.7332 31.4666 73.8666C32.5333 80.3999 37.2 89.9999 42.1333 95.8666L45.6 100.133L43.4666 108.667C42.2666 113.333 41.3333 118.4 41.3333 119.867C41.3333 123.733 44.8 126.533 51.7333 128.267L58 129.867L51.3333 131.733C47.4666 132.8 38.9333 133.6 30.8 133.467C14.9333 133.467 12 134.533 4.79997 142.8L0.133301 148.267L5.19997 155.867C7.99997 160 11.6 164.533 13.2 165.867C15.7333 168.267 16.1333 168.267 18.4 166.267C19.8666 164.933 26.5333 163.467 38 162C58.2666 159.467 66.6666 157.2 73.6 152.667L78.5333 149.333L83.3333 152.133C90.4 156.4 99.0666 158.667 117.733 161.333C128.133 162.8 136.133 164.667 138.267 166.133L141.867 168.4L147.2 162.4C150.267 159.067 153.733 154.533 154.933 152.4C157.2 148.4 157.2 148.267 153.467 143.067C147.733 135.2 142.667 133.333 127.733 133.6C114.4 134 98.4 131.067 103.333 129.2C104.8 128.667 108 127.467 110.4 126.667C117.067 124.133 117.6 121.733 114.533 110.667L111.733 100.933L114.533 97.4666C120.267 90.1332 124.267 82.2666 125.733 75.3332C126.933 69.1999 126.8 66.9332 124.8 60.3999C121.2 48.9332 108.8 37.3332 90.9333 28.3999C90.6666 28.2666 91.3333 26.7999 92.4 25.0666C99.0666 14.3999 93.4666 2.13325 81.2 0.666579C78.6666 0.399912 74.8 0.666579 72.5333 1.33325ZM84 11.9999C85.4666 13.4666 86.6666 15.5999 86.6666 16.6666C86.6666 19.4666 81.8666 23.9999 78.9333 23.9999C74.9333 23.9999 71.7333 20.6666 71.7333 16.6666C71.7333 9.86658 79.0666 7.06658 84 11.9999ZM87.3333 35.8666C95.7333 39.7332 108.933 50.1332 112.8 55.9999C119.467 66.1332 117.867 80.9332 109.467 85.8666C101.067 90.6666 59.0666 91.1999 48.9333 86.5332C41.4666 83.0666 37.8666 69.4666 42.1333 60.5332C47.3333 49.4666 69.0666 33.3332 78.5333 33.3332C80.4 33.3332 84.4 34.5332 87.3333 35.8666ZM104.267 101.333L103.733 106H78.6666H53.6L53.0666 101.333L52.6666 96.6666H78.6666H104.667L104.267 101.333ZM103.867 114.667C107.6 116.533 107.467 119.467 103.733 120.4C97.8666 121.867 67.0666 123.067 59.4666 122.133C51.7333 121.067 48.8 118.667 51.8666 115.6C55.2 112.267 97.8666 111.333 103.867 114.667ZM87.4666 132.667C96.4 139.067 103.2 140.933 122.667 142.533C137.067 143.733 139.6 144.267 141.6 146.8C143.467 148.933 143.6 150.133 142.533 152.267C141.2 154.667 140.267 154.8 130.933 154C104 151.733 88.4 147.467 82.1333 140.667L78.9333 137.2L75.4666 140.667C70.9333 145.2 62.6666 148.8 52.6666 150.533C38.2666 152.933 17.6 154.933 16.1333 154C15.3333 153.6 14.6666 151.733 14.6666 149.867C14.6666 145.067 20.4 143.2 37.3333 142.267C54.8 141.2 60.1333 139.733 69.3333 133.2C73.3333 130.4 77.6 128 78.8 128C79.8666 128 83.8666 130.133 87.4666 132.667Z" fill="black"/>
<path d="M74.4 52.9332C74 57.3332 73.4666 57.9998 70.4 58.3998C67.0666 58.7998 66.6666 59.4665 66.6666 63.4665C66.6666 67.5998 66.9333 67.9998 70.6666 67.9998C74.4 67.9998 74.6666 68.2665 74.6666 73.3332C74.6666 78.3998 74.9333 78.6665 78.6666 78.6665C82.4 78.6665 82.6666 78.3998 82.6666 73.4665C82.6666 68.5332 82.9333 68.1332 87.0666 67.7332C90.8 67.3332 91.3333 66.7998 91.7333 63.0665C92.1333 59.1998 91.8666 58.7998 87.7333 58.3998C83.7333 57.9998 83.3333 57.5998 82.9333 52.9332C82.5333 48.5332 82.1333 47.9998 78.6666 47.9998C75.2 47.9998 74.8 48.5332 74.4 52.9332Z" fill="black"/>
</svg>
